<svg width="1360.36" height="191.416" viewBox="0 0 1360.36 191.416" xmlns="http://www.w3.org/2000/svg"><g id="svgGroup" stroke-linecap="round" fill-rule="evenodd" font-size="9pt" stroke="#000" stroke-width="0.25mm" fill="#000" style="stroke:#000;stroke-width:0.25mm;fill:#000"><path d="M 162.2 22.2 L 157.5 22.2 A 3.613 3.613 0 0 0 156.794 22.266 A 2.74 2.74 0 0 0 156.1 22.5 Q 151.116 25.17 149.063 27.84 A 8.865 8.865 0 0 0 148.6 28.5 L 148.6 60.5 L 143.2 60.5 L 143.2 24.6 L 142.6 17.5 L 148 17.5 L 148.6 22.6 Q 150.208 20.916 151.581 19.759 A 22.31 22.31 0 0 1 152.4 19.1 A 17.353 17.353 0 0 1 153.919 18.109 Q 155.847 17 157.3 17 L 162.3 17 Q 166 17 168.5 18.9 A 13.337 13.337 0 0 1 169.979 20.144 Q 171.425 21.534 173 23.7 L 173.1 23.9 Q 175.595 21.073 177.329 19.628 A 14.417 14.417 0 0 1 178 19.1 A 16.595 16.595 0 0 1 179.568 18.085 Q 181.491 17 183 17 L 187.7 17 Q 191.4 17 193.9 18.9 A 13.337 13.337 0 0 1 195.379 20.144 Q 196.825 21.534 198.4 23.7 A 8 8 0 0 1 199.527 26.389 Q 199.766 27.438 199.796 28.65 A 14.22 14.22 0 0 1 199.8 29 L 199.8 60.5 L 194.4 60.5 L 194.4 29.2 A 6.501 6.501 0 0 0 194.371 28.569 Q 194.31 27.937 194.114 27.528 A 1.861 1.861 0 0 0 194.1 27.5 A 10.305 10.305 0 0 0 193.416 26.411 Q 193.05 25.898 192.589 25.358 A 20.245 20.245 0 0 0 192 24.7 Q 191.002 23.631 190.106 22.968 A 7.815 7.815 0 0 0 189.4 22.5 Q 188.9 22.2 187.6 22.2 L 183.3 22.2 A 4.48 4.48 0 0 0 182.667 22.242 Q 182.329 22.291 182.046 22.394 A 2.383 2.383 0 0 0 181.8 22.5 A 44.974 44.974 0 0 0 179.2 24.069 Q 176.687 25.713 175.318 27.214 A 8.485 8.485 0 0 0 174.4 28.4 L 174.4 29 L 174.4 60.5 L 169.1 60.5 L 169.1 29.2 A 6.501 6.501 0 0 0 169.071 28.569 Q 169.01 27.937 168.814 27.528 A 1.861 1.861 0 0 0 168.8 27.5 A 9.601 9.601 0 0 0 168.107 26.411 Q 167.511 25.591 166.65 24.7 A 19.129 19.129 0 0 0 165.683 23.763 Q 164.788 22.959 164 22.5 Q 163.5 22.2 162.2 22.2 Z M 34.4 54.9 L 34.4 60.5 L 0 60.5 L 0 0.5 L 34.4 0.5 L 34.4 6.1 L 5.8 6.1 L 5.8 27.7 L 32.9 27.7 L 32.9 33.3 L 5.8 33.3 L 5.8 54.9 L 34.4 54.9 Z M 271.8 30.5 L 299.4 60.5 L 291.8 60.5 L 266.9 33.3 L 265.7 33.3 L 265.7 60.5 L 259.9 60.5 L 259.9 0.5 L 265.7 0.5 L 265.7 27.8 L 266.9 27.8 L 291.7 0.5 L 299.3 0.5 L 271.8 30.5 Z M 342.8 29 L 342.8 60.5 L 337.4 60.5 L 337.4 29.2 A 6.501 6.501 0 0 0 337.371 28.569 Q 337.31 27.937 337.114 27.528 A 1.861 1.861 0 0 0 337.1 27.5 Q 335.4 24.3 332.4 22.6 Q 331.7 22.2 330.6 22.2 L 323.8 22.2 A 4.48 4.48 0 0 0 323.167 22.242 Q 322.829 22.291 322.546 22.394 A 2.383 2.383 0 0 0 322.3 22.5 Q 317.436 25.1 315.455 27.629 A 7.888 7.888 0 0 0 314.8 28.6 Q 314.8 28.683 314.731 28.766 A 0.497 0.497 0 0 1 314.7 28.8 A 0.451 0.451 0 0 0 314.648 28.861 Q 314.6 28.93 314.6 29 L 314.6 60.5 L 309.2 60.5 L 309.2 0.5 L 314.6 0.5 L 314.6 22.7 A 47.537 47.537 0 0 1 316.133 21.163 Q 316.987 20.346 317.785 19.677 A 25.503 25.503 0 0 1 318.5 19.1 A 16.595 16.595 0 0 1 320.068 18.085 Q 321.991 17 323.5 17 L 330.7 17 A 11.325 11.325 0 0 1 333.725 17.387 A 8.985 8.985 0 0 1 336.8 18.9 A 13.337 13.337 0 0 1 338.279 20.144 Q 339.725 21.534 341.3 23.7 A 9.271 9.271 0 0 1 342.77 28.17 A 11.444 11.444 0 0 1 342.8 29 Z M 82.6 45.8 L 82.6 49.4 Q 82.6 52.5 81.1 54.7 A 29.429 29.429 0 0 1 79.754 56.462 Q 78.306 58.206 77 59.1 A 9.248 9.248 0 0 1 72.631 60.881 A 12.235 12.235 0 0 1 70.9 61 L 58.9 61 A 11.325 11.325 0 0 1 55.875 60.613 A 8.985 8.985 0 0 1 52.8 59.1 A 14.633 14.633 0 0 1 51.378 57.868 Q 49.975 56.5 48.4 54.4 Q 47.173 52.418 47.015 52.129 A 0.93 0.93 0 0 1 47 52.1 L 52.2 50.3 Q 53.8 53.6 56.9 55.4 Q 57.6 55.8 58.7 55.8 L 70.8 55.8 Q 71.8 55.8 72.5 55.4 Q 75.4 53.8 76.9 50.9 A 2.356 2.356 0 0 0 77.071 50.428 Q 77.2 49.922 77.2 49.2 L 77.2 45.6 A 3.34 3.34 0 0 0 76.871 44.109 A 3.363 3.363 0 0 0 76.1 43.1 A 4.705 4.705 0 0 0 73.744 41.953 A 5.842 5.842 0 0 0 73.4 41.9 L 56.9 40.7 Q 53.2 40.4 50.7 37.8 Q 48.2 35.2 48.2 31.6 L 48.2 28.6 Q 48.2 25.5 49.7 23.3 A 29.429 29.429 0 0 1 51.046 21.538 Q 52.494 19.794 53.8 18.9 A 9.248 9.248 0 0 1 58.169 17.119 A 12.235 12.235 0 0 1 59.9 17 L 70.3 17 A 11.325 11.325 0 0 1 73.325 17.387 A 8.985 8.985 0 0 1 76.4 18.9 A 13.337 13.337 0 0 1 77.879 20.144 Q 79.325 21.534 80.9 23.7 Q 82 25.2 82.3 25.9 L 77.1 27.7 A 7.313 7.313 0 0 0 76.523 26.69 Q 76.194 26.2 75.753 25.679 A 16.832 16.832 0 0 0 75 24.85 Q 74.016 23.833 73.16 23.182 A 8.507 8.507 0 0 0 72.3 22.6 A 2.932 2.932 0 0 0 71.418 22.277 Q 71.049 22.202 70.627 22.2 A 4.967 4.967 0 0 0 70.6 22.2 L 60 22.2 Q 58.9 22.2 58.2 22.6 Q 55.4 24.2 53.9 27 A 2.356 2.356 0 0 0 53.729 27.472 Q 53.6 27.978 53.6 28.7 L 53.6 31.7 A 3.34 3.34 0 0 0 53.929 33.191 A 3.363 3.363 0 0 0 54.7 34.2 A 4.705 4.705 0 0 0 57.056 35.347 A 5.842 5.842 0 0 0 57.4 35.4 L 73.9 36.7 Q 77.6 37 80.1 39.6 Q 82.6 42.2 82.6 45.8 Z M 128.4 53.4 L 129.4 60.5 L 124 60.5 L 123.1 55.5 Q 121.3 57.4 119.3 58.9 A 17.353 17.353 0 0 1 117.781 59.891 Q 115.853 61 114.4 61 L 105.6 61 A 11.325 11.325 0 0 1 102.575 60.613 A 8.985 8.985 0 0 1 99.5 59.1 A 27.634 27.634 0 0 1 96.303 55.933 A 23.883 23.883 0 0 1 95.1 54.4 Q 93.6 52.2 93.6 49.1 L 93.6 47.1 A 10.181 10.181 0 0 1 94.075 43.946 A 8.97 8.97 0 0 1 95.1 41.8 A 25.361 25.361 0 0 1 98.25 38.219 A 29.741 29.741 0 0 1 99.5 37.1 Q 102 35.2 105.6 35.2 L 123 35.2 L 123 29.1 Q 123 28.449 122.915 27.968 A 3.282 3.282 0 0 0 122.8 27.5 Q 121.1 24.4 118 22.6 Q 117.3 22.2 116.2 22.2 L 106.8 22.2 Q 105.8 22.2 105.1 22.6 A 10.046 10.046 0 0 0 103.14 24.065 Q 102.321 24.835 101.524 25.857 A 22.915 22.915 0 0 0 100.3 27.6 L 95.1 25.9 A 108.569 108.569 0 0 1 95.569 25.156 Q 96.192 24.176 96.562 23.654 A 13.602 13.602 0 0 1 96.6 23.6 Q 98.5 20.8 101.1 18.8 A 8.819 8.819 0 0 1 104.767 17.213 A 12.235 12.235 0 0 1 107.1 17 L 116.3 17 Q 120 17 122.5 18.9 Q 124.103 19.912 126.203 22.56 A 41.462 41.462 0 0 1 127 23.6 Q 128.4 25.5 128.4 29 L 128.4 53.4 Z M 389.4 53.4 L 390.4 60.5 L 385 60.5 L 384.1 55.5 Q 382.3 57.4 380.3 58.9 A 17.353 17.353 0 0 1 378.781 59.891 Q 376.853 61 375.4 61 L 366.6 61 A 11.325 11.325 0 0 1 363.575 60.613 A 8.985 8.985 0 0 1 360.5 59.1 A 27.634 27.634 0 0 1 357.303 55.933 A 23.883 23.883 0 0 1 356.1 54.4 Q 354.6 52.2 354.6 49.1 L 354.6 47.1 A 10.181 10.181 0 0 1 355.075 43.946 A 8.97 8.97 0 0 1 356.1 41.8 A 25.361 25.361 0 0 1 359.25 38.219 A 29.741 29.741 0 0 1 360.5 37.1 Q 363 35.2 366.6 35.2 L 384 35.2 L 384 29.1 Q 384 28.449 383.915 27.968 A 3.282 3.282 0 0 0 383.8 27.5 Q 382.1 24.4 379 22.6 Q 378.3 22.2 377.2 22.2 L 367.8 22.2 Q 366.8 22.2 366.1 22.6 A 10.046 10.046 0 0 0 364.14 24.065 Q 363.321 24.835 362.524 25.857 A 22.915 22.915 0 0 0 361.3 27.6 L 356.1 25.9 A 108.569 108.569 0 0 1 356.569 25.156 Q 357.192 24.176 357.562 23.654 A 13.602 13.602 0 0 1 357.6 23.6 Q 359.5 20.8 362.1 18.8 A 8.819 8.819 0 0 1 365.767 17.213 A 12.235 12.235 0 0 1 368.1 17 L 377.3 17 Q 381 17 383.5 18.9 Q 385.103 19.912 387.203 22.56 A 41.462 41.462 0 0 1 388 23.6 Q 389.4 25.5 389.4 29 L 389.4 53.4 Z M 456.3 17 L 464.1 17 Q 466.066 17 468.733 18.841 A 19.792 19.792 0 0 1 469.1 19.1 A 28.491 28.491 0 0 1 470.725 20.471 Q 471.815 21.458 473 22.7 L 473 0.5 L 478.4 0.5 L 478.4 53.4 L 479 60.5 L 473.6 60.5 L 473 55.2 A 27.741 27.741 0 0 1 470.831 57.454 A 22.115 22.115 0 0 1 469.1 58.9 A 16.595 16.595 0 0 1 467.532 59.915 Q 465.609 61 464.1 61 L 456.3 61 A 11.325 11.325 0 0 1 453.275 60.613 A 8.985 8.985 0 0 1 450.2 59.1 A 27.83 27.83 0 0 1 445.94 54.623 A 25.958 25.958 0 0 1 445.7 54.3 Q 444.2 52.1 444.2 49 L 444.2 29 Q 444.2 25.9 445.7 23.7 A 27.614 27.614 0 0 1 450.038 19.038 A 30.505 30.505 0 0 1 450.2 18.9 A 9.248 9.248 0 0 1 454.569 17.119 A 12.235 12.235 0 0 1 456.3 17 Z M 410.5 60.5 L 405.1 60.5 Q 405 59.9 404.6 57.9 Q 404.283 56.315 404.217 55.358 A 6.726 6.726 0 0 1 404.2 54.9 L 404.2 0.5 L 409.6 0.5 L 409.6 53.7 Q 409.6 54.63 409.84 56.282 A 50.183 50.183 0 0 0 410 57.3 Q 410.327 59.261 410.453 60.153 A 21.647 21.647 0 0 1 410.5 60.5 Z M 449.6 29.2 L 449.6 48.8 A 6.501 6.501 0 0 0 449.629 49.431 Q 449.69 50.063 449.886 50.472 A 1.861 1.861 0 0 0 449.9 50.5 Q 451.6 53.7 454.6 55.4 Q 455.3 55.8 456.4 55.8 L 463.8 55.8 A 3.613 3.613 0 0 0 464.506 55.734 A 2.74 2.74 0 0 0 465.2 55.5 Q 466.496 54.852 468.128 53.738 A 46.735 46.735 0 0 0 469.45 52.8 Q 471.9 51 472.8 49.4 Q 472.9 49.2 473 48.9 L 473 29.1 L 472.8 28.6 A 7.042 7.042 0 0 0 471.998 27.476 Q 471.118 26.452 469.654 25.352 A 23.749 23.749 0 0 0 469.45 25.2 A 45.124 45.124 0 0 0 467.842 24.069 Q 467.112 23.58 466.451 23.188 A 19.874 19.874 0 0 0 465.2 22.5 A 2.794 2.794 0 0 0 464.383 22.244 A 3.718 3.718 0 0 0 463.8 22.2 L 456.4 22.2 Q 455.3 22.2 454.6 22.6 Q 451.6 24.3 449.9 27.5 A 2.356 2.356 0 0 0 449.729 27.972 Q 449.6 28.478 449.6 29.2 Z M 430.4 17.5 L 430.4 60.5 L 425 60.5 L 425 17.5 L 430.4 17.5 Z M 249.5 62.2 L 249.5 67.4 L 213.3 67.4 L 213.3 62.2 L 249.5 62.2 Z M 123 49.4 L 123 40.3 L 105.7 40.3 Q 104.6 40.3 103.9 40.7 A 11.179 11.179 0 0 0 99.802 44.632 A 13.829 13.829 0 0 0 99.3 45.5 A 2.491 2.491 0 0 0 99.111 46.03 Q 99.049 46.289 99.021 46.595 A 5.67 5.67 0 0 0 99 47.1 L 99 49.1 A 5.433 5.433 0 0 0 99.034 49.727 Q 99.069 50.032 99.142 50.288 A 2.38 2.38 0 0 0 99.3 50.7 Q 100.9 53.7 103.9 55.4 Q 104.6 55.8 105.7 55.8 L 114.1 55.8 A 3.613 3.613 0 0 0 114.806 55.734 A 2.74 2.74 0 0 0 115.5 55.5 A 21.974 21.974 0 0 0 116.757 54.775 Q 117.4 54.378 118.123 53.884 A 54.321 54.321 0 0 0 119.65 52.8 Q 122.1 51 123 49.4 Z M 384 49.4 L 384 40.3 L 366.7 40.3 Q 365.6 40.3 364.9 40.7 A 11.179 11.179 0 0 0 360.802 44.632 A 13.829 13.829 0 0 0 360.3 45.5 A 2.491 2.491 0 0 0 360.111 46.03 Q 360.049 46.289 360.021 46.595 A 5.67 5.67 0 0 0 360 47.1 L 360 49.1 A 5.433 5.433 0 0 0 360.034 49.727 Q 360.069 50.032 360.142 50.288 A 2.38 2.38 0 0 0 360.3 50.7 Q 361.9 53.7 364.9 55.4 Q 365.6 55.8 366.7 55.8 L 375.1 55.8 A 3.613 3.613 0 0 0 375.806 55.734 A 2.74 2.74 0 0 0 376.5 55.5 A 21.974 21.974 0 0 0 377.757 54.775 Q 378.4 54.378 379.123 53.884 A 54.321 54.321 0 0 0 380.65 52.8 Q 383.1 51 384 49.4 Z M 431.5 0 L 431.5 7.7 L 423.9 7.7 L 423.9 0 L 431.5 0 Z" vector-effect="non-scaling-stroke"/></g></svg>